<?xml version="1.0" encoding="utf-8"?>
<!-- Generator: Adobe Illustrator 25.2.1, SVG Export Plug-In . SVG Version: 6.00 Build 0)  -->
<svg version="1.1" id="Layer_1" xmlns="http://www.w3.org/2000/svg" xmlns:xlink="http://www.w3.org/1999/xlink" x="0px" y="0px"
	 viewBox="0 0 2000 677.9" style="enable-background:new 0 0 2000 677.9;" xml:space="preserve">
<style type="text/css">
	.st0{fill-rule:evenodd;clip-rule:evenodd;fill:#002D72;}
	.st1{fill-rule:evenodd;clip-rule:evenodd;fill:#FEFEFE;}
	.st2{fill-rule:evenodd;clip-rule:evenodd;fill:#0BBBEF;}
</style>
<g>
	<path class="st0" d="M1614.3,641.1H327.2c-15.7,0-30.2-6.4-41.4-17.1c-18.9-17.9-25.8-47.8-20.1-75.2l53.4-430.1
		c1-4.7,1.4-9.4,1.8-14.2c3.2-38,31-67.7,64.8-67.7h1287.1c15.7,0,30.2,6.4,41.4,17.1c18.9,17.9,25.8,47.7,20.1,75.1
		c-16,76.1-43,380.2-53.5,430.2c-1,4.7-1.4,9.4-1.8,14.2C1675.9,611.4,1648.1,641.1,1614.3,641.1z"/>
</g>
<g>
	<path class="st1" d="M708.1,229.7c-17.1-21.7-45.8-28-71.4-27.6h-73.3l67.8,104.7L708.1,229.7L708.1,229.7z M510.9,453.2
		L510.9,453.2l250.2-251.1h119.8L762.1,321.3l100.1,154.2l-61.2,0.1c-58.6,0-70.2-18.7-80.3-31L688.6,395l-80.2,80.6l-185,0.2
		c8.5-48.2,17.5-96.5,26.2-144.7l7.9-23.2l-57.2,27l0.4-70.6l95.6-62.4h60.9L510.9,453.2z"/>
	<g>
		<path class="st2" d="M1388.5,202.1l-11.8,64.7h73.7l-37.6,208.8h82.7l37.7-208.8h74.3l11.9-64.7H1388.5L1388.5,202.1z
			 M931.6,410.9l8.7-47.7l54.2,0.1l12.8,0c47.7,0.1,34.6,47.5-7.9,47.5L931.6,410.9L931.6,410.9z M1090.9,331.4L1090.9,331.4
			c16.9-11.1,26.2-28.3,29.7-47.2c8.1-44.9-21.6-82-88.4-82l-144.6,0.2l-40,218.4l35.6,54.8h102.9c67.5,0,117.5-31.5,127.4-86.1
			C1121.3,344.4,1091,331.7,1090.9,331.4L1090.9,331.4z M1010.1,310.4L1010.1,310.4l-59.9,0l8-43.7l47.4,0.1l11.8,0
			C1061,266.9,1049.1,310.4,1010.1,310.4L1010.1,310.4z M1212.6,369.7l-7.6,41.2h134.4l-11.8,64.7h-216.8l49.7-273.5h208.7
			l-11.8,64.7l-126.1,0l-7,38.2h109.3l-11.8,64.7H1212.6L1212.6,369.7z"/>
	</g>
</g>
</svg>
